# xmcd
#
# Track frame offsets:
#	150
#	16478
#	41435
#	60613
#	78705
#	93993
#	110048
#	129378
#	148080
#	168935
#
# Disc length: 2518 seconds
#
# Revision: 1
# Processed by: cddbd v1.5.1PL0 Copyright (c) Steve Scherf et al.
# Submitted via: audiograbber 1.82.02
#
DISCID=8409d40a
DTITLE=Per-Erik Hallin - Better Late Than Never
DYEAR=1982
DGENRE=CCM
TTITLE0=Let It Out
TTITLE1=Gospel Train
TTITLE2=You Put Another Song In My Heart
TTITLE3=Do You Know What You're Missing
TTITLE4=What A World It Would Be
TTITLE5=Better Late Than Never
TTITLE6=Dont You Put It Off Until Tomorrow
TTITLE7=The Golden Rule Jingle
TTITLE8=Nothing To Fear
TTITLE9=Summer Is Not Over
EXTD=
EXTT0=
EXTT1=
EXTT2=
EXTT3=
EXTT4=
EXTT5=
EXTT6=
EXTT7=
EXTT8=
EXTT9=
PLAYORDER=
